<?xml version="1.0" encoding="UTF-8" standalone="no"?>
<svg
   xmlns:dc="http://purl.org/dc/elements/1.1/"
   xmlns:cc="http://creativecommons.org/ns#"
   xmlns:rdf="http://www.w3.org/1999/02/22-rdf-syntax-ns#"
   xmlns:svg="http://www.w3.org/2000/svg"
   xmlns="http://www.w3.org/2000/svg"
   xmlns:sodipodi="http://sodipodi.sourceforge.net/DTD/sodipodi-0.dtd"
   xmlns:inkscape="http://www.inkscape.org/namespaces/inkscape"
   width="2500"
   height="2500"
   viewBox="0 0 256 256"
   preserveAspectRatio="xMinYMin meet"
   version="1.1"
   id="svg6"
   sodipodi:docname="bootstrap-4.svg"
   inkscape:version="0.92.3 (unknown)">
  <metadata
     id="metadata12">
    <rdf:RDF>
      <cc:Work
         rdf:about="">
        <dc:format>image/svg+xml</dc:format>
        <dc:type
           rdf:resource="http://purl.org/dc/dcmitype/StillImage" />
      </cc:Work>
    </rdf:RDF>
  </metadata>
  <defs
     id="defs10" />
  <sodipodi:namedview
     pagecolor="#ffffff"
     bordercolor="#666666"
     borderopacity="1"
     objecttolerance="10"
     gridtolerance="10"
     guidetolerance="10"
     inkscape:pageopacity="0"
     inkscape:pageshadow="2"
     inkscape:window-width="1241"
     inkscape:window-height="736"
     id="namedview8"
     showgrid="false"
     inkscape:zoom="0.0944"
     inkscape:cx="-826.27119"
     inkscape:cy="1250"
     inkscape:window-x="39"
     inkscape:window-y="27"
     inkscape:window-maximized="1"
     inkscape:current-layer="svg6" />
  <path
     style="fill:#15b4c9;stroke-width:9.765625;fill-opacity:1"
     d="M 322.36328 0 C 144.30664 0 0 144.32617 0 322.35352 L 0 2177.6367 L 0 2177.6465 C 0 2355.6934 144.32617 2500 322.35352 2500 L 2177.6367 2500 C 2355.6934 2500 2500 2355.6738 2500 2177.6465 L 2500 322.36328 C 2500 144.30664 2355.6738 0 2177.6465 0 L 322.36328 0 z M 703.85742 493.16406 L 1416.1719 493.16406 C 1488.252 493.16406 1553.9746 499.52148 1613.3301 512.24609 C 1672.6953 524.96094 1723.5742 545.81055 1765.9668 574.78516 C 1808.3691 603.75977 1841.2305 642.27539 1864.5508 690.32227 C 1887.8711 738.37891 1899.5312 797.73438 1899.5312 868.39844 C 1899.5313 944.72656 1882.2168 1008.3203 1847.5977 1059.1992 C 1812.9688 1110.0781 1761.7285 1151.7773 1693.8867 1184.2773 C 1787.168 1211.1328 1856.7773 1258.125 1902.7148 1325.2637 C 1948.6426 1392.3926 1971.6113 1473.3008 1971.6113 1567.998 C 1971.6113 1644.3164 1956.7773 1710.3906 1927.0898 1766.2207 C 1897.4121 1822.041 1857.4805 1867.627 1807.3145 1902.959 C 1757.1387 1938.291 1699.9023 1964.4336 1635.5957 1981.3965 C 1571.2891 1998.3594 1505.2148 2006.8359 1437.373 2006.8359 L 703.85742 2006.8359 L 703.85742 493.16406 z M 1036.6992 751.80664 L 1036.6992 1105.8398 L 1373.7695 1105.8398 C 1433.1348 1105.8398 1481.8945 1091.709 1520.0488 1063.4375 C 1558.2129 1035.1758 1577.2949 989.23828 1577.2949 925.63477 C 1577.2949 890.3125 1570.9277 861.33789 1558.2129 838.7207 C 1545.4883 816.11328 1528.5254 798.44727 1507.334 785.72266 C 1486.1328 772.99805 1461.748 764.16992 1434.1895 759.22852 C 1406.6309 754.27734 1378.0176 751.80664 1348.3301 751.80664 L 1036.6992 751.80664 z M 1036.6992 1332.6758 L 1036.6992 1748.1934 L 1392.8516 1748.1934 C 1425.3613 1748.1934 1456.4453 1745.0098 1486.1328 1738.6621 C 1515.8105 1732.2949 1541.9629 1721.6992 1564.5703 1706.8555 C 1587.1875 1692.0215 1605.2051 1671.875 1618.6328 1646.4355 C 1632.0605 1620.9961 1638.7793 1588.4961 1638.7793 1548.916 C 1638.7793 1471.1816 1616.8652 1415.7129 1573.0566 1382.5 C 1529.2383 1349.2773 1471.2891 1332.6758 1399.209 1332.6758 L 1036.6992 1332.6758 z "
     id="path2"
     transform="scale(0.1024)" />
  <rect
     style="opacity:1;vector-effect:none;fill:#000000;fill-opacity:0;stroke:none;stroke-width:0.1024;stroke-linecap:butt;stroke-linejoin:miter;stroke-miterlimit:4;stroke-dasharray:none;stroke-dashoffset:0;stroke-opacity:1;paint-order:markers stroke fill"
     id="rect822"
     width="279.86441"
     height="285.28812"
     x="-106.30508"
     y="114.98305" />
</svg>
