<?xml version="1.0" encoding="UTF-8" standalone="no"?>
<svg
   xmlns:dc="http://purl.org/dc/elements/1.1/"
   xmlns:cc="http://creativecommons.org/ns#"
   xmlns:rdf="http://www.w3.org/1999/02/22-rdf-syntax-ns#"
   xmlns:svg="http://www.w3.org/2000/svg"
   xmlns="http://www.w3.org/2000/svg"
   xmlns:sodipodi="http://sodipodi.sourceforge.net/DTD/sodipodi-0.dtd"
   xmlns:inkscape="http://www.inkscape.org/namespaces/inkscape"
   version="1.1"
   x="0px"
   y="0px"
   width="192px"
   height="192px"
   viewBox="0 0 192 192"
   enable-background="new 0 0 192 192"
   xml:space="preserve"
   id="svg18"
   sodipodi:docname="ic_analytics.svg"
   inkscape:version="0.92.3 (unknown)"><metadata
   id="metadata24"><rdf:RDF><cc:Work
       rdf:about=""><dc:format>image/svg+xml</dc:format><dc:type
         rdf:resource="http://purl.org/dc/dcmitype/StillImage" /></cc:Work></rdf:RDF></metadata><defs
   id="defs22" /><sodipodi:namedview
   pagecolor="#ffffff"
   bordercolor="#666666"
   borderopacity="1"
   objecttolerance="10"
   gridtolerance="10"
   guidetolerance="10"
   inkscape:pageopacity="0"
   inkscape:pageshadow="2"
   inkscape:window-width="1241"
   inkscape:window-height="736"
   id="namedview20"
   showgrid="false"
   inkscape:zoom="1.2291667"
   inkscape:cx="96"
   inkscape:cy="96"
   inkscape:window-x="39"
   inkscape:window-y="27"
   inkscape:window-maximized="1"
   inkscape:current-layer="g16" />
<rect
   x="0"
   y="0"
   fill="none"
   width="192"
   height="192"
   id="rect2" />
<g
   id="g16">
	<g
   id="g6"
   style="fill:#15c8c9;fill-opacity:1">
		<path
   fill="#F9AB00"
   d="M130,29v132c0,14.77,10.19,23,21,23c10,0,21-7,21-23V30c0-13.54-10-22-21-22S130,17.33,130,29z"
   id="path4"
   style="fill:#15c8c9;fill-opacity:1" />
	</g>
	<g
   id="g10"
   style="fill:#15b4c9;fill-opacity:1">
		<path
   fill="#E37400"
   d="M75,96v65c0,14.77,10.19,23,21,23c10,0,21-7,21-23V97c0-13.54-10-22-21-22S75,84.33,75,96z"
   id="path8"
   style="fill:#15b4c9;fill-opacity:1" />
	</g>
	<g
   id="g14">
		<circle
   fill="#E37400"
   cx="41"
   cy="163"
   r="21"
   id="circle12"
   style="fill:#15a0c9;fill-opacity:1" />
	</g>
</g>
</svg>