<?xml version="1.0" encoding="UTF-8" standalone="no"?>
<!-- Created with Inkscape (http://www.inkscape.org/) -->

<svg
   xmlns:dc="http://purl.org/dc/elements/1.1/"
   xmlns:cc="http://creativecommons.org/ns#"
   xmlns:rdf="http://www.w3.org/1999/02/22-rdf-syntax-ns#"
   xmlns:svg="http://www.w3.org/2000/svg"
   xmlns="http://www.w3.org/2000/svg"
   xmlns:sodipodi="http://sodipodi.sourceforge.net/DTD/sodipodi-0.dtd"
   xmlns:inkscape="http://www.inkscape.org/namespaces/inkscape"
   width="777"
   height="300"
   viewBox="0 0 205.58125 79.375002"
   version="1.1"
   id="svg8"
   inkscape:version="0.92.3 (unknown)"
   sodipodi:docname="logo_777x300.svg">
  <defs
     id="defs2" />
  <sodipodi:namedview
     id="base"
     pagecolor="#ffffff"
     bordercolor="#666666"
     borderopacity="1.0"
     inkscape:pageopacity="0.0"
     inkscape:pageshadow="2"
     inkscape:zoom="0.7"
     inkscape:cx="364.29165"
     inkscape:cy="244.82276"
     inkscape:document-units="px"
     inkscape:current-layer="text12"
     showgrid="false"
     units="px"
     inkscape:window-width="1241"
     inkscape:window-height="736"
     inkscape:window-x="39"
     inkscape:window-y="27"
     inkscape:window-maximized="1" />
  <metadata
     id="metadata5">
    <rdf:RDF>
      <cc:Work
         rdf:about="">
        <dc:format>image/svg+xml</dc:format>
        <dc:type
           rdf:resource="http://purl.org/dc/dcmitype/StillImage" />
        <dc:title></dc:title>
      </cc:Work>
    </rdf:RDF>
  </metadata>
  <g
     inkscape:label="Layer 1"
     inkscape:groupmode="layer"
     id="layer1"
     transform="translate(0,-217.62498)">
    <g
       aria-label="Jet IT }"
       style="font-style:normal;font-weight:normal;font-size:73.87094879px;line-height:1.25;font-family:sans-serif;letter-spacing:0px;word-spacing:0px;fill:#000000;fill-opacity:1;stroke:none;stroke-width:1.84677398"
       id="text12">
      <path
         d="m 10.186465,281.80069 v -2.8071 q 5.392579,2.06839 9.898707,2.06839 3.989031,0 6.426772,-2.21613 2.437742,-2.21613 2.437742,-6.64839 v -40.99837 h 2.585483 v 40.99837 q 0,5.6142 -3.250322,8.56903 -3.176451,2.88097 -8.199675,2.88097 -4.801612,0 -9.898707,-1.84677 z"
         style="fill:#ffffff;fill-opacity:1"
         id="path830" />
      <path
         d="m 39.671361,273.3794 v -17.87677 q 0,-5.0971 2.807096,-7.68258 2.880967,-2.58548 7.387095,-2.58548 4.506128,0 7.387095,2.58548 2.880967,2.58548 2.880967,7.68258 v 10.19419 h -17.95064 v 7.68258 q 0,3.84129 2.142257,5.76193 2.142258,1.92065 5.540321,1.92065 3.250322,0 8.790643,-1.99452 v 2.73323 q -5.097095,1.84677 -8.790643,1.84677 -4.506128,0 -7.387095,-2.58548 -2.807096,-2.58548 -2.807096,-7.68258 z m 2.511613,-10.19419 h 15.365157 v -7.68258 q 0,-3.84129 -2.142258,-5.76193 -2.142257,-1.92065 -5.540321,-1.92065 -3.398063,0 -5.540321,1.92065 -2.142257,1.92064 -2.142257,5.76193 z"
         style="fill:#ffffff;fill-opacity:1"
         id="path832" />
      <path
         d="m 66.599631,248.55876 v -2.58548 h 4.949353 v -7.16548 h 2.585483 v 7.16548 h 9.30774 v 2.58548 h -9.30774 v 24.82064 q 0,3.84129 2.29,5.76193 2.36387,1.92065 5.983547,1.92065 v 2.58548 q -4.801612,0 -7.830321,-2.58548 -3.028709,-2.58548 -3.028709,-7.68258 v -24.82064 z"
         style="fill:#ffffff;fill-opacity:1"
         id="path834" />
      <path
         d="m 115.12591,282.90875 v -51.70966 h 2.58549 v 51.70966 z"
         style="fill:#ffffff;fill-opacity:1"
         id="path836" />
      <path
         d="m 123.44564,233.78457 v -2.58548 h 22.82612 v 2.58548 h -10.12032 v 49.12418 h -2.58548 v -49.12418 z"
         style="fill:#ffffff;fill-opacity:1"
         id="path838" />
      <path
         d="m 177.96124,288.22746 q 3.84129,0 5.83581,-2.73322 2.06839,-2.73323 2.06839,-7.46097 v -11.81935 q 0,-3.10258 2.14225,-5.24484 l 3.61968,-3.69355 -3.61968,-3.61967 q -2.14225,-2.21613 -2.14225,-5.31871 V 236.5178 q 0,-4.72774 -2.06839,-7.46097 -1.99452,-2.73322 -5.83581,-2.73322 v -2.51162 q 4.94936,0 7.68258,3.47194 2.8071,3.39806 2.8071,9.23387 v 11.22838 q 0,2.65935 1.84677,4.43226 l 5.0971,5.09709 -5.0971,5.0971 q -1.84677,1.7729 -1.84677,4.43226 v 11.22838 q 0,5.90968 -2.8071,9.30774 -2.73322,3.47193 -7.68258,3.47193 z"
         style="fill:#15b4c9;fill-opacity:1;stroke-width:1.84677398"
         id="path840" />
    </g>
  </g>
</svg>
