<?xml version="1.0" encoding="UTF-8" standalone="no"?>
<svg
   xmlns:dc="http://purl.org/dc/elements/1.1/"
   xmlns:cc="http://creativecommons.org/ns#"
   xmlns:rdf="http://www.w3.org/1999/02/22-rdf-syntax-ns#"
   xmlns:svg="http://www.w3.org/2000/svg"
   xmlns="http://www.w3.org/2000/svg"
   xmlns:sodipodi="http://sodipodi.sourceforge.net/DTD/sodipodi-0.dtd"
   xmlns:inkscape="http://www.inkscape.org/namespaces/inkscape"
   xml:space="preserve"
   width="2362px"
   height="1417px"
   style="shape-rendering:geometricPrecision; text-rendering:geometricPrecision; image-rendering:optimizeQuality; fill-rule:evenodd; clip-rule:evenodd"
   viewBox="0 0 2362 1417.2"
   version="1.1"
   enable-background="new 0 0 512 512"
   id="svg17"
   sodipodi:docname="rwd.svg"
   inkscape:version="0.92.3 (unknown)"><metadata
   id="metadata21"><rdf:RDF><cc:Work
       rdf:about=""><dc:format>image/svg+xml</dc:format><dc:type
         rdf:resource="http://purl.org/dc/dcmitype/StillImage" /></cc:Work></rdf:RDF></metadata><sodipodi:namedview
   pagecolor="#ffffff"
   bordercolor="#666666"
   borderopacity="1"
   objecttolerance="10"
   gridtolerance="10"
   guidetolerance="10"
   inkscape:pageopacity="0"
   inkscape:pageshadow="2"
   inkscape:window-width="1241"
   inkscape:window-height="736"
   id="namedview19"
   showgrid="false"
   inkscape:zoom="0.16654905"
   inkscape:cx="704.16314"
   inkscape:cy="708.50001"
   inkscape:window-x="39"
   inkscape:window-y="27"
   inkscape:window-maximized="1"
   inkscape:current-layer="svg17" />
 <defs
   id="defs4">
  <style
   type="text/css"
   id="style2">
   <![CDATA[
    .fil0 {fill:#777777}
   ]]>
  </style>
 </defs>
 <g
   id="Vrstva_x0020_1"
   style="fill:#15b4c9;fill-opacity:1">
  <path
   class="fil0"
   d="M1233.91 1328.63c-29.8521,-21.8875 -33.0113,-54.776 -33.0113,-54.776l-11.1853 -71.3537 -356.615 0 -11.2195 71.3537c0,0 -3.11784,32.8885 -32.9523,54.776 -29.8002,21.9123 -53.3517,40.6925 -29.8002,43.873 22.6728,3.03753 236.521,0.273992 252.298,0 15.8171,0.273992 229.618,3.03753 252.316,0 23.4984,-3.18043 -0.05905,-21.9158 -29.8309,-43.873z"
   id="path6"
   style="fill:#15b4c9;fill-opacity:1" />
  <path
   class="fil0"
   d="M404.396 729.733c0,-33.0078 -26.8359,-59.7881 -59.9216,-59.7881l-284.547 0c-33.0845,0 -59.9275,26.778 -59.9275,59.7881l0 627.67c0,33.0479 26.8429,59.7988 59.9275,59.7988l284.569 -0.002362c33.0668,0 59.9204,-26.7508 59.9204,-59.7988l0.002362 -627.667 -0.02362 0zm-231.918 7.48163l59.9169 0c4.13822,0 7.48518,3.33632 7.48518,7.43794 0,4.14177 -3.34695,7.50407 -7.48518,7.50407l-59.9169 0c-4.13941,0 -7.49935,-3.38593 -7.49935,-7.50407 0.005905,-4.14767 3.36703,-7.43794 7.49935,-7.43794zm27.4618 644.631c-16.5517,0 -29.9773,-13.376 -29.9773,-29.9029 0,-16.5045 13.4268,-29.9029 29.9773,-29.9029 16.5387,0 29.9537,13.3512 29.9537,29.9029 0,16.5269 -13.3902,29.9029 -29.9537,29.9029zm167.024 -84.1935l-329.521 0 0 -500.684 329.527 0 0 500.684 -0.005905 0z"
   id="path8"
   style="fill:#15b4c9;fill-opacity:1" />
  <path
   class="fil0"
   d="M2277.97 326.095l-616.281 0c-46.4086,0 -84.0281,37.5156 -84.0281,83.838l0 880.158c0,46.3165 37.6255,83.877 84.0281,83.877l616.281 0c46.4357,0 84.0282,-37.5629 84.0282,-83.877l0 -880.178c-0.02362,-46.32 -37.616,-83.8179 -84.0282,-83.8179zm-428.801 1001.22c-23.2019,0 -42.046,-18.7283 -42.046,-41.8641 0,-23.157 18.844,-41.9326 42.046,-41.9326 23.1618,0 41.9373,18.7755 41.9373,41.9326 0.003543,23.1334 -18.7755,41.8641 -41.9373,41.8641zm120.639 0c-23.1606,0 -41.981,-18.7283 -41.981,-41.8641 0,-23.157 18.8204,-41.9326 41.981,-41.9326 23.2303,0 41.9999,18.7755 41.9999,41.9326 0,23.1334 -18.7472,41.8641 -41.9999,41.8641zm120.754 0c-23.2303,0 -42.0046,-18.7283 -42.0046,-41.8641 0,-23.157 18.7744,-41.9326 42.0046,-41.9326 23.1795,0 41.9786,18.7755 41.9786,41.9326 0,23.1334 -18.7992,41.8641 -41.9786,41.8641zm218.915 -121.093l-679.298 0 0 -806.806 679.298 0 0 806.806 0 0z"
   id="path10"
   style="fill:#15b4c9;fill-opacity:1" />
  <path
   class="fil0"
   d="M1768.9 255.392l103.291 0 0 -186.663c0,-37.9798 -30.8371,-68.7283 -68.8759,-68.7283l-1583.82 0c-38.027,0 -68.8759,30.7485 -68.8759,68.7283l0 530.536 103.315 0 0 -496.194 1514.96 0 0 152.321 0 0z"
   id="path12"
   style="fill:#15b4c9;fill-opacity:1" />
  <path
   class="fil0"
   d="M475.26 927.629l0 206.141 1031.55 0 0 -206.141 -1031.55 0zm536.135 150.21c-26.0729,0 -47.2412,-21.1257 -47.2412,-47.1396 0,-26.0056 21.1659,-47.1325 47.2412,-47.1325 26.08,0 47.2412,21.1269 47.2412,47.1325 -0.002362,26.0068 -21.1612,47.1396 -47.2412,47.1396z"
   id="path14"
   style="fill:#15b4c9;fill-opacity:1" />
 </g>
</svg>